<svg xmlns="http://www.w3.org/2000/svg" xml:space="preserve" style="max-width:100%" viewBox="0 0 100 100"><g fill="currentColor"><path d="M28.972 23.076a.996.996 0 0 0 .691-.278l6.394-6.115a1 1 0 0 0-1.383-1.445l-6.394 6.115a1 1 0 0 0 .692 1.723zM30.422 30.178a.998.998 0 0 0 1.414.011l11.66-11.476a1 1 0 1 0-1.403-1.426l-11.66 11.476a1 1 0 0 0-.011 1.415zM37.849 32.293a.996.996 0 0 0 1.414.014l6.393-6.27a1 1 0 1 0-1.4-1.428l-6.394 6.27a1 1 0 0 0-.013 1.414z"/><path d="M86.81 55.003H60.065c.04-.372.062-.747.062-1.121v-.623c0-.822-.107-1.637-.296-2.437a4.167 4.167 0 0 0 2.875-1.192 4.124 4.124 0 0 0 1.222-2.919c0-2.27-1.87-4.116-4.166-4.116h-5.333V11.18a1 1 0 0 0-1-1h-32.93a1 1 0 0 0-1 1v31.414h-5.333c-1.114 0-2.16.425-2.942 1.197A4.122 4.122 0 0 0 10 46.712c0 2.246 1.833 4.072 4.097 4.11-.19.8-.295 1.614-.295 2.437v.623c0 5.878 4.85 10.66 10.81 10.66h8.185v24.277a1 1 0 0 0 1 1h53.018A3.188 3.188 0 0 0 90 86.634v-28.44a3.194 3.194 0 0 0-3.19-3.19zM21.499 12.181h30.93v30.414h-3.605v-2.977c0-.872-.339-1.691-.955-2.306a3.253 3.253 0 0 0-1.307-.777v-1.882a2.359 2.359 0 0 0-4.715 0 1 1 0 1 0 2 0c0-.195.16-.354.357-.354s.358.159.358.354v1.881c-1.309.425-2.263 1.639-2.263 3.084v2.977H32v-4.9a2.68 2.68 0 0 0-1-2.078V32a1 1 0 0 0-1-1h-3a1 1 0 0 0-1 1v3.617a2.68 2.68 0 0 0-1 2.078v4.9h-3.501V12.18zm25.325 27.437v2.977H44.3v-2.977c0-.693.566-1.257 1.263-1.257.334 0 .66.134.895.368.236.236.367.552.367.89zM29.306 37c.382 0 .694.312.694.695V42h-3v-4.305c0-.383.312-.695.694-.695h1.612zM28 35v-2h1v2h-1zM12 46.711c0-.565.223-1.096.627-1.494a2.205 2.205 0 0 1 1.539-.622H42.899a.992.992 0 0 0 .4.086h4.525a.992.992 0 0 0 .4-.086h11.538c1.194 0 2.166.95 2.166 2.116 0 .566-.223 1.097-.625 1.494a2.21 2.21 0 0 1-1.541.623H14.166c-1.194 0-2.166-.95-2.166-2.117zM39.132 87.82h-4.335V64.542h4.335v23.277zm-5.335-25.277H24.61c-4.857 0-8.81-3.885-8.81-8.66v-.623c0-.822.119-1.637.351-2.43h41.623c.234.794.352 1.608.352 2.43v.623a8.5 8.5 0 0 1-2.398 5.94l-.003.004c-1.68 1.75-3.956 2.716-6.409 2.716h-15.52zm29.768-1.025v21.788H45.656V64.542h3.661c.362 0 .721-.02 1.078-.055.12-.012.236-.036.354-.052.237-.032.473-.062.706-.108.143-.029.282-.07.423-.104.205-.05.41-.096.611-.157.15-.046.295-.102.443-.154.187-.066.375-.13.558-.205.151-.062.297-.134.445-.203.173-.081.347-.16.515-.25.148-.078.291-.166.436-.251.16-.095.32-.19.475-.292.143-.095.28-.196.418-.298.148-.109.295-.218.438-.334.133-.109.26-.223.388-.338.085-.076.175-.145.257-.224h6.703zM88 86.634c0 .654-.531 1.185-1.185 1.185H41.132V64.542h2.524v19.763a1 1 0 0 0 1 1h39.82a1 1 0 0 0 1-1V60.517a1 1 0 0 0-1-1H58.5c.067-.105.115-.22.178-.328a10.54 10.54 0 0 0 .863-1.877c.036-.104.086-.203.118-.309h27.15c.657 0 1.191.534 1.191 1.19v28.441zm-22.435-3.329V61.517h17.91v21.788h-17.91z"/><path d="M59.136 75.221c1.55 0 2.81-1.259 2.81-2.805s-1.26-2.806-2.81-2.806-2.81 1.259-2.81 2.806 1.26 2.805 2.81 2.805zm0-3.611c.447 0 .81.361.81.806s-.363.805-.81.805c-.447 0-.81-.361-.81-.805s.363-.806.81-.806zM69.995 69.764c-1.549 0-2.81 1.258-2.81 2.805a2.811 2.811 0 0 0 5.62 0 2.81 2.81 0 0 0-2.81-2.805zm0 3.61a.809.809 0 0 1-.81-.805c0-.444.364-.805.81-.805.447 0 .81.361.81.805a.809.809 0 0 1-.81.806z"/></g></svg>