<svg width="2752" height="1874" viewBox="0 0 2752 1874" fill="none" xmlns="http://www.w3.org/2000/svg">
<path d="M2027.67 762.676L2027.68 762.674C2030.36 751.986 2039.99 744.5 2051 744.5H2321C2332 744.5 2341.64 751.985 2344.3 762.676L2344.3 762.678M2027.67 762.676L2342.84 763.04L2344.3 762.678M2027.67 762.676L1960.17 1032.68C1958.38 1039.84 1959.98 1047.43 1964.59 1053.29C1969.14 1059.14 1976.12 1062.5 1983.5 1062.5H2094.5V1217H1916C1902.75 1217 1892 1227.75 1892 1241V1824.5H1602.5V1602.5H1713.5C1726.75 1602.5 1737.5 1591.75 1737.5 1578.5V1241C1737.5 1227.75 1726.75 1217 1713.5 1217H1670V903.5C1670 890.252 1659.25 879.5 1646 879.5H363.5C350.252 879.5 339.5 890.252 339.5 903.5V1217H296C282.752 1217 272 1227.75 272 1241V1578.5C272 1591.75 282.752 1602.5 296 1602.5H407V1824.5H26C12.7516 1824.5 2 1835.25 2 1848.5C2 1861.75 12.7516 1872.5 26 1872.5H2726C2739.25 1872.5 2750 1861.75 2750 1848.5C2750 1835.25 2739.25 1824.5 2726 1824.5H2480V1241C2480 1227.75 2469.25 1217 2456 1217H2277.5V1062.5H2388.5H2388.5H2388.5H2388.51H2388.51H2388.51H2388.51H2388.51H2388.52H2388.52H2388.52H2388.52H2388.52H2388.53H2388.53H2388.53H2388.53H2388.53H2388.54H2388.54H2388.54H2388.54H2388.55H2388.55H2388.55H2388.55H2388.55H2388.56H2388.56H2388.56H2388.56H2388.56H2388.57H2388.57H2388.57H2388.57H2388.57H2388.57H2388.58H2388.58H2388.58H2388.58H2388.58H2388.59H2388.59H2388.59H2388.59H2388.59H2388.6H2388.6H2388.6H2388.6H2388.6H2388.61H2388.61H2388.61H2388.61H2388.61H2388.62H2388.62H2388.62H2388.62H2388.62H2388.63H2388.63H2388.63H2388.63H2388.63H2388.64H2388.64H2388.64H2388.64H2388.64H2388.65H2388.65H2388.65C2401.9 1062.5 2412.65 1051.75 2412.65 1038.5C2412.65 1035.53 2412.12 1032.68 2411.14 1030.07M2027.67 762.676L2411.14 1030.07M2344.3 762.678L2411.14 1030.07M2344.3 762.678L2411.14 1030.07M2069.75 792.5H2302.25L2357.75 1014.5H2014.25L2069.75 792.5ZM2142.5 1062.5H2229.5V1217H2142.5V1062.5ZM2432 1265V1487H1940V1265H2432ZM1940 1535H2432V1824.5H1940V1535ZM387.5 927.5H1622V1217H1533.58C1529.76 1183.66 1517.94 1158.49 1501.29 1139.51C1484.42 1120.3 1462.66 1107.52 1439.43 1099.01C1393.01 1082.02 1340.43 1082 1308.5 1082C1276.57 1082 1223.99 1082.02 1177.57 1099.01C1154.34 1107.52 1132.58 1120.3 1115.71 1139.51C1099.06 1158.49 1087.24 1183.66 1083.42 1217H926.083C922.264 1183.66 910.443 1158.49 893.785 1139.51C876.917 1120.3 855.159 1107.52 831.926 1099.01C785.507 1082.02 732.933 1082 701 1082C669.067 1082 616.493 1082.02 570.074 1099.01C546.841 1107.52 525.083 1120.3 508.215 1139.51C491.557 1158.49 479.736 1183.66 475.917 1217H387.5V927.5ZM1463.73 1170.61C1474.25 1182.34 1481.72 1197.46 1485.03 1217H1131.97C1135.29 1197.46 1142.78 1182.34 1153.3 1170.61C1164.14 1158.53 1178.27 1149.98 1194.57 1143.95C1227.23 1131.87 1268.35 1130 1308.5 1130C1348.65 1130 1389.78 1131.87 1422.45 1143.95C1438.75 1149.98 1452.89 1158.53 1463.73 1170.61ZM856.214 1170.61C866.735 1182.34 874.217 1197.46 877.527 1217H524.473C527.791 1197.46 535.276 1182.34 545.799 1170.61C556.64 1158.53 570.772 1149.98 587.074 1143.95C619.73 1131.87 660.852 1130 701 1130C741.148 1130 782.277 1131.87 814.937 1143.95C831.242 1149.98 845.374 1158.53 856.214 1170.61ZM320 1265H1689.5V1554.5H320V1265ZM455 1602.5H1554.5V1824.5H455V1602.5Z" fill="black" stroke="black" stroke-width="3"/>
<path d="M2168.93 1359.04L2168.92 1359.04C2164.44 1363.52 2161.88 1369.69 2161.88 1376C2161.88 1382.31 2164.44 1388.51 2168.93 1392.97C2173.44 1397.44 2179.64 1400 2185.94 1400C2192.25 1400 2198.45 1397.45 2202.88 1392.96C2207.38 1388.42 2209.94 1382.32 2209.94 1376C2209.94 1369.7 2207.39 1363.49 2202.87 1359.04C2193.91 1350.05 2177.97 1350.06 2168.93 1359.04Z" fill="black" stroke="black" stroke-width="3"/>
<path d="M498.5 657.5H1511C1524.25 657.5 1535 646.748 1535 633.5V26C1535 12.7516 1524.25 2 1511 2H498.5C485.252 2 474.5 12.7516 474.5 26V633.5C474.5 646.748 485.252 657.5 498.5 657.5ZM522.5 609.5V508.451L734.75 296.201L1048.05 609.5H522.5ZM1487 50V609.5H1115.95L751.711 245.289C742.335 235.914 727.135 235.914 717.759 245.289L522.5 440.549V50H1487Z" fill="black" stroke="black" stroke-width="3"/>
<path d="M1241 455C1328.68 455 1400 383.678 1400 296C1400 208.322 1328.68 137 1241 137C1153.32 137 1082 208.322 1082 296C1082 383.678 1153.32 455 1241 455ZM1241 185C1302.21 185 1352 234.788 1352 296C1352 357.212 1302.21 407 1241 407C1179.79 407 1130 357.212 1130 296C1130 234.788 1179.79 185 1241 185Z" fill="black" stroke="black" stroke-width="3"/>
</svg>
