<svg xmlns="http://www.w3.org/2000/svg" xml:space="preserve" style="max-width:100%" viewBox="0 0 95 95"><path fill="currentColor" d="M24.6 60.8h2.1v9h-2.1zM38.7 60.8h2.1v9h-2.1zM83.7 60.8h2.1v9h-2.1z"/><path fill="currentColor" d="M78.1 54h2.8v-2.1h-2.8c-.1-7.2-.7-10-5.3-10-3.2 0-5 1.9-5 5.2h2.1c0-2.2.8-3.1 2.9-3.1 2.6 0 3.1 1.1 3.2 7.9h-2.8V54H76v.6H56.3v-3.9h1.9v-2.1h-1.9v-2H40.8v2h-1.9v2.1h1.9v3.9H29.2V41.7H6.6v12.9H2.1v30.6H93V54.6H78.1V54zM8.7 43.8h18.4v10.7H8.7V43.8zM31.6 83H4.2V56.7h27.4V83zM43 48.6h11.1v6H43v-6zM61.2 83H33.8V56.7h27.5V83zm29.6 0H63.4V56.7h27.5V83z"/><path fill="currentColor" d="M12.8 53.6h13.4v-8.9H12.8v8.9zm2.1-6.7H24v4.6h-9.1v-4.6zM9.3 45.4h2.1v4.3H9.3zM46.9 39.3c.5-.4.6-1 .2-1.5-.4-.5-1-.6-1.5-.2-.7.6-1.6 1.3-1.6 2.3 0 .9.6 1.4.9 1.7l.2.2c0 .1-.1.2-.3.4-.3.3-.8.8-.7 1.6.1.8.8 1.5 1.4 2 .2.1.4.2.6.2.3 0 .6-.1.8-.4.4-.5.3-1.1-.2-1.5-.2-.2-.4-.3-.5-.4.3-.4.9-1 .9-1.9 0-.8-.6-1.4-.9-1.7l-.1-.1c.2-.3.4-.5.8-.7zM52.6 37.2c.5-.4.6-1 .2-1.5-.4-.5-1-.6-1.5-.2-.7.6-1.6 1.3-1.6 2.3 0 .9.6 1.4.9 1.7l.2.2c0 .1-.1.2-.3.4-.3.3-.8.8-.7 1.6.1.8.8 1.5 1.4 2 .2.1.4.2.6.2.3 0 .6-.1.8-.4.4-.5.3-1.1-.2-1.5-.2-.2-.4-.3-.5-.4.3-.4.9-1 .9-1.9 0-.8-.6-1.4-.9-1.7l-.1-.1c.3-.2.5-.4.8-.7zM21.2 27h6.3v2.1h-6.3z"/><path fill="currentColor" d="M62.9 9.9v22.4l-5.7-8V9.9H37.8v14.4l-5 7V9.9H2.1v22.8H93V9.9H62.9zM30.7 30.5H4.2V12h26.5v18.5zM40 12h15v11.5H40V12zm-4 18.5 3.5-4.9h16.1l3.5 4.9H36zm54.8 0H65V12h25.8v18.5z"/><path fill="currentColor" d="M81.6 27h6.3v2.1h-6.3z"/></svg>