<svg xmlns="http://www.w3.org/2000/svg" xml:space="preserve" style="max-width:100%" viewBox="0 0 100 100"><path fill="currentColor" d="M92.5 61.3h-8.8V55c0-2.1-1.7-3.8-3.8-3.8h-3.8V25.5l12.1-12.1c.4-.4.5-.9.3-1.4-.2-.5-.6-.8-1.2-.8h-25c-.5 0-1 .3-1.2.8-.2.5-.1 1 .3 1.4l12.1 12.1v25.7h-21c-1 0-1.8.4-2.5 1-.7-.6-1.5-1-2.5-1H20c-2.1 0-3.8 1.7-3.8 3.8v6.3H7.5c-.7 0-1.3.6-1.3 1.3v25c0 .7.6 1.3 1.3 1.3h1.3v3.8c0 .7.6 1.3 1.3 1.3h5c.7 0 1.3-.6 1.3-1.3v-3.8h67.5v3.8c0 .7.6 1.3 1.3 1.3h5c.7 0 1.3-.6 1.3-1.3v-3.8h1.3c.7 0 1.3-.6 1.3-1.3v-25c-.3-.8-.9-1.3-1.6-1.3zm-27-47.5h19L75 23.2l-9.5-9.4zM51.3 55c0-.7.6-1.3 1.3-1.3H80c.7 0 1.3.6 1.3 1.3v18.8h-30V55zm-32.5 7.5V55c0-.7.6-1.3 1.3-1.3h27.5c.7 0 1.3.6 1.3 1.3v18.8h-30V62.5zm-10 1.3h7.5v10H8.8v-10zm5 27.5h-2.5v-2.5h2.5v2.5zm75 0h-2.5v-2.5h2.5v2.5zm2.5-5H8.8v-10h82.5v10zm0-12.5h-7.5v-10h7.5v10z"/><path fill="currentColor" d="M12.5 38.8h20c.7 0 1.3-.6 1.3-1.3v-25c0-.7-.6-1.3-1.3-1.3h-20c-.7 0-1.3.6-1.3 1.3v25c.1.7.6 1.3 1.3 1.3zm1.3-25h17.5v22.5H13.8V13.8z"/><path fill="currentColor" d="M27.5 16.3h-10c-.7 0-1.3.6-1.3 1.3v15c0 .7.6 1.3 1.3 1.3s1.3-.6 1.3-1.3V18.8h8.8c.7 0 1.3-.6 1.3-1.3s-.7-1.2-1.4-1.2z"/></svg>